<?xml version="1.0" encoding="UTF-8"?>
<svg version="1.1" xmlns="http://www.w3.org/2000/svg" width="192" height="192">
<path d="M0 0 C63.36 0 126.72 0 192 0 C192 63.36 192 126.72 192 192 C128.64 192 65.28 192 0 192 C0 128.64 0 65.28 0 0 Z " fill="#000000" transform="translate(0,0)"/>
<path d="M0 0 C8.46717411 -0.09061019 16.93396706 -0.16389303 25.40149689 -0.20724869 C29.33392955 -0.22806427 33.26601139 -0.25627007 37.19824219 -0.30175781 C40.99785274 -0.345433 44.79712727 -0.36918239 48.5969696 -0.37950897 C50.04177637 -0.38686174 51.48656614 -0.40121968 52.93122864 -0.42292023 C60.83710047 -0.53688066 67.24969526 -0.54803342 74 4 C78.74729243 10.27867709 78.21562916 16.64739629 78.25 24.1875 C78.270625 25.29931641 78.29125 26.41113281 78.3125 27.55664062 C78.34806571 35.06545134 78.04541139 41.21748267 73.16015625 47.28515625 C58.15384615 60 58.15384615 60 52 60 C52.69222656 61.093125 53.38445312 62.18625 54.09765625 63.3125 C61.90212413 75.6478086 69.6615628 88.01104378 77.37451172 100.40380859 C78.42369541 102.07953995 79.48199314 103.74961539 80.55126953 105.41259766 C84 110.79465227 84 110.79465227 84 113 C87.3 113 90.6 113 94 113 C94 116.63 94 120.26 94 124 C83.11 124 72.22 124 61 124 C61 120.37 61 116.74 61 113 C63.97 113 66.94 113 70 113 C68.96166016 111.3603125 68.96166016 111.3603125 67.90234375 109.6875 C67.43755615 108.95257324 66.97276855 108.21764648 66.49389648 107.46044922 C65.44356746 105.80002319 64.39227507 104.1402062 63.34008789 102.48095703 C60.17900748 97.48611082 57.05487093 92.4712385 53.96875 87.4296875 C53.29851807 86.34042969 52.62828613 85.25117187 51.93774414 84.12890625 C50.61487097 81.9769163 49.29882641 79.8207122 47.98999023 77.66015625 C47.08035522 76.18482422 47.08035522 76.18482422 46.15234375 74.6796875 C45.61601318 73.80038574 45.07968262 72.92108398 44.52709961 72.01513672 C43.08145059 69.71320221 43.08145059 69.71320221 40 69 C34.42635898 70.95519604 28.98340711 73.51889079 25 78 C22.53108963 83.63779987 23.26274242 90.05950766 23.5625 96.0625 C23.58956422 97.70758347 23.60980639 99.35279407 23.62304688 100.99804688 C23.67001779 105.00448806 23.80936445 108.99792651 24 113 C27.63 113 31.26 113 35 113 C35 116.63 35 120.26 35 124 C23.45 124 11.9 124 0 124 C0 120.37 0 116.74 0 113 C3.63 113 7.26 113 11 113 C11 79.67 11 46.34 11 12 C7.37 12 3.74 12 0 12 C0 8.04 0 4.08 0 0 Z " fill="#F9F9F9" transform="translate(49,34)"/>
<path d="M0 0 C13.86 0 27.72 0 42 0 C42.2475 4.640625 42.495 9.28125 42.75 14.0625 C42.85924805 15.51277588 42.96849609 16.96305176 43.08105469 18.45727539 C43.17899401 22.24821165 43.04951364 25.34638064 42 29 C38.50628261 32.41789887 34.42215025 34.02536218 30 36 C27.73913991 37.34774463 25.49941718 38.73152597 23.28125 40.1484375 C22.16492188 40.84324219 21.04859375 41.53804687 19.8984375 42.25390625 C18.18111935 43.32462885 16.46491931 44.39702581 14.75097656 45.47314453 C13.0557241 46.53635749 11.35604598 47.59250364 9.65625 48.6484375 C8.66431641 49.26895996 7.67238281 49.88948242 6.65039062 50.52880859 C4 52 4 52 0 53 C0 35.51 0 18.02 0 0 Z " fill="#070707" transform="translate(73,45)"/>
</svg>
